<svg id="Layer_1" data-name="Layer 1" xmlns="http://www.w3.org/2000/svg" viewBox="0 0 558.85 600"><defs><style>.cls-1{fill:#fff;}</style></defs><title>SVG 8</title><path class="cls-1" d="M74.15,251.77C96.49,149.34,188.93,75,294,75a223.14,223.14,0,0,1,134.93,44.89,35.37,35.37,0,0,1,14.11,31,37.5,37.5,0,0,1-18.91,30.73c-12.88,7.45-28.83,6.92-39.7-1.3A148.76,148.76,0,0,0,294,150,150.68,150.68,0,0,0,164,225a37.5,37.5,0,1,0,64.9,37.6A75.44,75.44,0,0,1,294,225a74.27,74.27,0,0,1,45.18,15.1c35.13,26.58,83.19,29.11,122.46,6.44a112.83,112.83,0,0,0,56.27-91.18,110.63,110.63,0,0,0-44-95.45A297.55,297.55,0,0,0,294,0C153.93,0,30.67,99.16.87,235.79a37.5,37.5,0,0,0,28.65,44.63,38,38,0,0,0,8,.87A37.53,37.53,0,0,0,74.15,251.77Z"/><path class="cls-1" d="M540.14,398.83a37.5,37.5,0,0,0-51.24,13.65A226,226,0,0,1,294,525a223.2,223.2,0,0,1-161.43-68.29c-15.56-16-9.49-34.48-7.26-39.75,2.31-5.45,11.63-23.24,34.83-23.24a36.87,36.87,0,0,1,26.36,10.89A148.81,148.81,0,0,0,294,450a150.44,150.44,0,0,0,129.91-75,37.5,37.5,0,0,0-64.95-37.5A75.24,75.24,0,0,1,294,375a74.38,74.38,0,0,1-53.74-22.69,112.29,112.29,0,0,0-80.12-33.59c-46.09,0-85.9,26.45-103.91,69C38.37,429.86,47,476.3,78.7,509A297.61,297.61,0,0,0,294,600c106.72,0,206.28-57.45,259.84-149.92A37.5,37.5,0,0,0,540.14,398.83Z"/></svg>